<?xml version="1.0" encoding="utf-8"?>
<!-- Generator: Adobe Illustrator 25.2.0, SVG Export Plug-In . SVG Version: 6.00 Build 0)  -->
<svg version="1.1" id="Layer_1" xmlns="http://www.w3.org/2000/svg" xmlns:xlink="http://www.w3.org/1999/xlink" x="0px" y="0px"
	 viewBox="0 0 68.1 68.1" style="enable-background:new 0 0 68.1 68.1;" xml:space="preserve">
<style type="text/css">
	.st0{opacity:0.15;fill-rule:evenodd;clip-rule:evenodd;fill:#14B8A6;enable-background:new    ;}
</style>
<path class="st0" d="M10.2,18.8c-1.6,0-2.9,1.3-2.9,2.9v22c0,3.2,2.6,5.7,5.7,5.7s5.7-2.6,5.7-5.7v-22c0-1.6-1.3-2.9-2.9-2.9
	C15.9,18.8,10.2,18.8,10.2,18.8z M32.6,32.2l-11,10.9V26.9l2.9-2.9c1.1-1.1,2.9-1.1,4,0l4,4C33.7,29.2,33.7,31.1,32.6,32.2z
	 M19.5,49.3H35c1.6,0,2.9-1.3,2.9-2.9v-5.7c0-1.6-1.3-2.9-2.9-2.9h-4.1L19.5,49.3z M13.1,45.5c1.1,0,1.9-0.9,1.9-1.9
	s-0.9-1.9-1.9-1.9s-1.9,0.9-1.9,1.9S12,45.5,13.1,45.5z"/>
</svg>
